<svg id="Layer_2" data-name="Layer 2" xmlns="http://www.w3.org/2000/svg" viewBox="0 0 600.91 144.53"><defs><style>.cls-1{fill:#2c92bb;}.cls-2{fill:#fff;}.cls-3{fill:#fec947;}.cls-4{fill:#80bed6;}</style></defs><title>logo</title><path class="cls-1" d="M69,86C21,98,6,78,6.08,77.57,7.83,116.18,42.26,147,84.5,147c34.09,0,63.09-20.07,73.94-48.11C130,97,116,76,69,86Z" transform="translate(-5.87 -2.47)"/><rect class="cls-1" x="191.67" y="83.53" width="409" height="39" rx="19.5"/><path class="cls-1" d="M268.92,101.48a6.67,6.67,0,0,1-.47,2.51,5.91,5.91,0,0,1-1.32,2,6.75,6.75,0,0,1-2.49,1.58,10.63,10.63,0,0,1-3.62.52h-2.71v7.59H255.6V95.33h5.53a13.72,13.72,0,0,1,3.1.3,7.09,7.09,0,0,1,2.26,1,5.56,5.56,0,0,1,1.8,1.94A6.1,6.1,0,0,1,268.92,101.48Zm-2.82.07a4.35,4.35,0,0,0-.36-1.84,3.06,3.06,0,0,0-1.13-1.27,4.63,4.63,0,0,0-1.49-.61,10.44,10.44,0,0,0-2.13-.18h-2.68v8.13h2.29a9.74,9.74,0,0,0,2.66-.29,3.79,3.79,0,0,0,2.58-2.32A4.59,4.59,0,0,0,266.1,101.55Z" transform="translate(-5.87 -2.47)"/><path class="cls-1" d="M293.27,97.66a9.37,9.37,0,0,1,1.9,3.35,14.19,14.19,0,0,1,.67,4.5,14,14,0,0,1-.68,4.51,9.21,9.21,0,0,1-1.89,3.31,8.16,8.16,0,0,1-3,2.08,11.19,11.19,0,0,1-7.82,0,8.2,8.2,0,0,1-3-2.07,9.22,9.22,0,0,1-1.89-3.32,14.11,14.11,0,0,1-.66-4.5,14.28,14.28,0,0,1,.65-4.46,9.55,9.55,0,0,1,1.92-3.39,8,8,0,0,1,3-2,10.51,10.51,0,0,1,3.89-.71,10.28,10.28,0,0,1,3.94.72A8.34,8.34,0,0,1,293.27,97.66Zm-.25,7.85a9.36,9.36,0,0,0-1.78-6.12,6.58,6.58,0,0,0-9.73,0,9.42,9.42,0,0,0-1.77,6.12,9.23,9.23,0,0,0,1.81,6.13,6.55,6.55,0,0,0,9.67,0A9.23,9.23,0,0,0,293,105.51Z" transform="translate(-5.87 -2.47)"/><path class="cls-1" d="M320.9,97.66a9.24,9.24,0,0,1,1.91,3.35,14.19,14.19,0,0,1,.67,4.5,14,14,0,0,1-.68,4.51,9.08,9.08,0,0,1-1.9,3.31,8.12,8.12,0,0,1-3,2.08,11.19,11.19,0,0,1-7.82,0,8.2,8.2,0,0,1-3-2.07,9.22,9.22,0,0,1-1.89-3.32,14.11,14.11,0,0,1-.66-4.5,14.28,14.28,0,0,1,.65-4.46,9.55,9.55,0,0,1,1.92-3.39,8,8,0,0,1,3-2A10.51,10.51,0,0,1,314,94.9a10.2,10.2,0,0,1,3.93.72A8.17,8.17,0,0,1,320.9,97.66Zm-.24,7.85a9.36,9.36,0,0,0-1.78-6.12,6.58,6.58,0,0,0-9.73,0,9.42,9.42,0,0,0-1.77,6.12,9.17,9.17,0,0,0,1.81,6.13,6.55,6.55,0,0,0,9.67,0A9.23,9.23,0,0,0,320.66,105.51Z" transform="translate(-5.87 -2.47)"/><path class="cls-1" d="M346.25,115.68H333.37V95.33h2.7v18h10.18Z" transform="translate(-5.87 -2.47)"/><path class="cls-1" d="M384.79,109.87a5.36,5.36,0,0,1-.55,2.35,5.64,5.64,0,0,1-1.55,2,8.21,8.21,0,0,1-2.55,1.37,11,11,0,0,1-3.51.49,17.09,17.09,0,0,1-4-.41,19.59,19.59,0,0,1-3.57-1.22V111h.19a11.37,11.37,0,0,0,3.56,2,11.84,11.84,0,0,0,3.81.69,6.93,6.93,0,0,0,3.91-.94,2.89,2.89,0,0,0,1.4-2.52,2.67,2.67,0,0,0-.66-2,4.49,4.49,0,0,0-2-1,20.69,20.69,0,0,0-2.22-.45c-.8-.12-1.64-.27-2.53-.45a7.52,7.52,0,0,1-4-2,5.37,5.37,0,0,1,.86-7.81A8.83,8.83,0,0,1,376.86,95a17.33,17.33,0,0,1,3.94.41,17.92,17.92,0,0,1,3.17,1v3.2h-.19a9.48,9.48,0,0,0-3.06-1.64,11.91,11.91,0,0,0-3.87-.65,6,6,0,0,0-3.5.91,2.7,2.7,0,0,0-1.32,2.32,2.87,2.87,0,0,0,.66,2,4.44,4.44,0,0,0,2.31,1.1c.58.13,1.41.29,2.49.47s2,.37,2.73.56a7,7,0,0,1,3.42,1.82A4.73,4.73,0,0,1,384.79,109.87Z" transform="translate(-5.87 -2.47)"/><path class="cls-1" d="M408.15,115.68H394.74V95.33h13.41v2.4H397.44v5.58h10.71v2.41H397.44v7.56h10.71Z" transform="translate(-5.87 -2.47)"/><path class="cls-1" d="M434.89,115.68h-3.52l-6.81-8.09h-3.81v8.09H418V95.33h5.7a17.44,17.44,0,0,1,3.08.23,6.55,6.55,0,0,1,2.22.86,5.2,5.2,0,0,1,1.73,1.76,5.26,5.26,0,0,1,.62,2.68,6,6,0,0,1-1.11,3.69,6.74,6.74,0,0,1-3,2.23Zm-6.33-14.63a3.79,3.79,0,0,0-.31-1.55,2.77,2.77,0,0,0-1-1.14,3.75,3.75,0,0,0-1.39-.55,9.63,9.63,0,0,0-1.9-.16h-3.19v7.68h2.73a10,10,0,0,0,2.25-.22,3.55,3.55,0,0,0,1.62-.84,3.65,3.65,0,0,0,.91-1.32A5.15,5.15,0,0,0,428.56,101.05Z" transform="translate(-5.87 -2.47)"/><path class="cls-1" d="M459.16,95.33l-7.41,20.35h-3.61l-7.41-20.35h2.9L450,113.24l6.38-17.91Z" transform="translate(-5.87 -2.47)"/><path class="cls-1" d="M475,115.68h-8V113.6h2.67V97.4H467V95.33h8V97.4h-2.67v16.2H475Z" transform="translate(-5.87 -2.47)"/><path class="cls-1" d="M501,114.21c-.5.21-.95.42-1.36.61a14.44,14.44,0,0,1-1.59.6,16.51,16.51,0,0,1-1.81.45,12,12,0,0,1-2.16.18,12.42,12.42,0,0,1-4-.62,8.15,8.15,0,0,1-3.16-2,9,9,0,0,1-2.05-3.3,13.53,13.53,0,0,1-.73-4.66,13.1,13.1,0,0,1,.71-4.49,9,9,0,0,1,2-3.35,8.52,8.52,0,0,1,3.14-2,11.49,11.49,0,0,1,4.08-.69,14.05,14.05,0,0,1,3.27.39,17.56,17.56,0,0,1,3.63,1.4V100h-.2a12.26,12.26,0,0,0-3.34-2,9.63,9.63,0,0,0-3.54-.64,7.21,7.21,0,0,0-2.78.5,6.05,6.05,0,0,0-2.21,1.55,7,7,0,0,0-1.47,2.59,11.34,11.34,0,0,0-.53,3.61,10.68,10.68,0,0,0,.58,3.7,7.48,7.48,0,0,0,1.5,2.51,5.83,5.83,0,0,0,2.24,1.5,7.6,7.6,0,0,0,2.7.48,9.87,9.87,0,0,0,3.66-.67,10.23,10.23,0,0,0,3.2-2H501Z" transform="translate(-5.87 -2.47)"/><path class="cls-1" d="M523.8,115.68H510.39V95.33H523.8v2.4H513.1v5.58h10.7v2.41H513.1v7.56h10.7Z" transform="translate(-5.87 -2.47)"/><path class="cls-1" d="M548.49,109.87a5.37,5.37,0,0,1-.56,2.35,5.52,5.52,0,0,1-1.55,2,8.21,8.21,0,0,1-2.55,1.37,11,11,0,0,1-3.51.49,17.06,17.06,0,0,1-4-.41,19.68,19.68,0,0,1-3.58-1.22V111H533a11.31,11.31,0,0,0,3.57,2,11.83,11.83,0,0,0,3.8.69,7,7,0,0,0,3.92-.94,2.91,2.91,0,0,0,1.4-2.52,2.67,2.67,0,0,0-.66-2,4.6,4.6,0,0,0-2-1,20.69,20.69,0,0,0-2.22-.45c-.8-.12-1.64-.27-2.54-.45a7.53,7.53,0,0,1-4-2,5.36,5.36,0,0,1,.85-7.81A8.86,8.86,0,0,1,540.56,95a17.18,17.18,0,0,1,3.93.41,17.78,17.78,0,0,1,3.18,1v3.2h-.19a9.59,9.59,0,0,0-3.06-1.64,12,12,0,0,0-3.88-.65,6,6,0,0,0-3.49.91,2.7,2.7,0,0,0-1.32,2.32,2.87,2.87,0,0,0,.66,2,4.4,4.4,0,0,0,2.31,1.1c.58.13,1.41.29,2.49.47s2,.37,2.73.56a7.13,7.13,0,0,1,3.42,1.82A4.77,4.77,0,0,1,548.49,109.87Z" transform="translate(-5.87 -2.47)"/><path class="cls-2" d="M268.92,101.48a6.67,6.67,0,0,1-.47,2.51,5.91,5.91,0,0,1-1.32,2,6.75,6.75,0,0,1-2.49,1.58,10.63,10.63,0,0,1-3.62.52h-2.71v7.59H255.6V95.33h5.53a13.72,13.72,0,0,1,3.1.3,7.09,7.09,0,0,1,2.26,1,5.56,5.56,0,0,1,1.8,1.94A6.1,6.1,0,0,1,268.92,101.48Zm-2.82.07a4.35,4.35,0,0,0-.36-1.84,3.06,3.06,0,0,0-1.13-1.27,4.63,4.63,0,0,0-1.49-.61,10.44,10.44,0,0,0-2.13-.18h-2.68v8.13h2.29a9.74,9.74,0,0,0,2.66-.29,3.79,3.79,0,0,0,2.58-2.32A4.59,4.59,0,0,0,266.1,101.55Z" transform="translate(-5.87 -2.47)"/><path class="cls-2" d="M293.27,97.66a9.37,9.37,0,0,1,1.9,3.35,14.19,14.19,0,0,1,.67,4.5,14,14,0,0,1-.68,4.51,9.21,9.21,0,0,1-1.89,3.31,8.16,8.16,0,0,1-3,2.08,11.19,11.19,0,0,1-7.82,0,8.2,8.2,0,0,1-3-2.07,9.22,9.22,0,0,1-1.89-3.32,14.11,14.11,0,0,1-.66-4.5,14.28,14.28,0,0,1,.65-4.46,9.55,9.55,0,0,1,1.92-3.39,8,8,0,0,1,3-2,10.51,10.51,0,0,1,3.89-.71,10.28,10.28,0,0,1,3.94.72A8.34,8.34,0,0,1,293.27,97.66Zm-.25,7.85a9.36,9.36,0,0,0-1.78-6.12,6.58,6.58,0,0,0-9.73,0,9.42,9.42,0,0,0-1.77,6.12,9.23,9.23,0,0,0,1.81,6.13,6.55,6.55,0,0,0,9.67,0A9.23,9.23,0,0,0,293,105.51Z" transform="translate(-5.87 -2.47)"/><path class="cls-2" d="M320.9,97.66a9.24,9.24,0,0,1,1.91,3.35,14.19,14.19,0,0,1,.67,4.5,14,14,0,0,1-.68,4.51,9.08,9.08,0,0,1-1.9,3.31,8.12,8.12,0,0,1-3,2.08,11.19,11.19,0,0,1-7.82,0,8.2,8.2,0,0,1-3-2.07,9.22,9.22,0,0,1-1.89-3.32,14.11,14.11,0,0,1-.66-4.5,14.28,14.28,0,0,1,.65-4.46,9.55,9.55,0,0,1,1.92-3.39,8,8,0,0,1,3-2A10.51,10.51,0,0,1,314,94.9a10.2,10.2,0,0,1,3.93.72A8.17,8.17,0,0,1,320.9,97.66Zm-.24,7.85a9.36,9.36,0,0,0-1.78-6.12,6.58,6.58,0,0,0-9.73,0,9.42,9.42,0,0,0-1.77,6.12,9.17,9.17,0,0,0,1.81,6.13,6.55,6.55,0,0,0,9.67,0A9.23,9.23,0,0,0,320.66,105.51Z" transform="translate(-5.87 -2.47)"/><path class="cls-2" d="M346.25,115.68H333.37V95.33h2.7v18h10.18Z" transform="translate(-5.87 -2.47)"/><path class="cls-2" d="M384.79,109.87a5.36,5.36,0,0,1-.55,2.35,5.64,5.64,0,0,1-1.55,2,8.21,8.21,0,0,1-2.55,1.37,11,11,0,0,1-3.51.49,17.09,17.09,0,0,1-4-.41,19.59,19.59,0,0,1-3.57-1.22V111h.19a11.37,11.37,0,0,0,3.56,2,11.84,11.84,0,0,0,3.81.69,6.93,6.93,0,0,0,3.91-.94,2.89,2.89,0,0,0,1.4-2.52,2.67,2.67,0,0,0-.66-2,4.49,4.49,0,0,0-2-1,20.69,20.69,0,0,0-2.22-.45c-.8-.12-1.64-.27-2.53-.45a7.52,7.52,0,0,1-4-2,5.37,5.37,0,0,1,.86-7.81A8.83,8.83,0,0,1,376.86,95a17.33,17.33,0,0,1,3.94.41,17.92,17.92,0,0,1,3.17,1v3.2h-.19a9.48,9.48,0,0,0-3.06-1.64,11.91,11.91,0,0,0-3.87-.65,6,6,0,0,0-3.5.91,2.7,2.7,0,0,0-1.32,2.32,2.87,2.87,0,0,0,.66,2,4.44,4.44,0,0,0,2.31,1.1c.58.13,1.41.29,2.49.47s2,.37,2.73.56a7,7,0,0,1,3.42,1.82A4.73,4.73,0,0,1,384.79,109.87Z" transform="translate(-5.87 -2.47)"/><path class="cls-2" d="M408.15,115.68H394.74V95.33h13.41v2.4H397.44v5.58h10.71v2.41H397.44v7.56h10.71Z" transform="translate(-5.87 -2.47)"/><path class="cls-2" d="M434.89,115.68h-3.52l-6.81-8.09h-3.81v8.09H418V95.33h5.7a17.44,17.44,0,0,1,3.08.23,6.55,6.55,0,0,1,2.22.86,5.2,5.2,0,0,1,1.73,1.76,5.26,5.26,0,0,1,.62,2.68,6,6,0,0,1-1.11,3.69,6.74,6.74,0,0,1-3,2.23Zm-6.33-14.63a3.79,3.79,0,0,0-.31-1.55,2.77,2.77,0,0,0-1-1.14,3.75,3.75,0,0,0-1.39-.55,9.63,9.63,0,0,0-1.9-.16h-3.19v7.68h2.73a10,10,0,0,0,2.25-.22,3.55,3.55,0,0,0,1.62-.84,3.65,3.65,0,0,0,.91-1.32A5.15,5.15,0,0,0,428.56,101.05Z" transform="translate(-5.87 -2.47)"/><path class="cls-2" d="M459.16,95.33l-7.41,20.35h-3.61l-7.41-20.35h2.9L450,113.24l6.38-17.91Z" transform="translate(-5.87 -2.47)"/><path class="cls-2" d="M475,115.68h-8V113.6h2.67V97.4H467V95.33h8V97.4h-2.67v16.2H475Z" transform="translate(-5.87 -2.47)"/><path class="cls-2" d="M501,114.21c-.5.21-.95.42-1.36.61a14.44,14.44,0,0,1-1.59.6,16.51,16.51,0,0,1-1.81.45,12,12,0,0,1-2.16.18,12.42,12.42,0,0,1-4-.62,8.15,8.15,0,0,1-3.16-2,9,9,0,0,1-2.05-3.3,13.53,13.53,0,0,1-.73-4.66,13.1,13.1,0,0,1,.71-4.49,9,9,0,0,1,2-3.35,8.52,8.52,0,0,1,3.14-2,11.49,11.49,0,0,1,4.08-.69,14.05,14.05,0,0,1,3.27.39,17.56,17.56,0,0,1,3.63,1.4V100h-.2a12.26,12.26,0,0,0-3.34-2,9.63,9.63,0,0,0-3.54-.64,7.21,7.21,0,0,0-2.78.5,6.05,6.05,0,0,0-2.21,1.55,7,7,0,0,0-1.47,2.59,11.34,11.34,0,0,0-.53,3.61,10.68,10.68,0,0,0,.58,3.7,7.48,7.48,0,0,0,1.5,2.51,5.83,5.83,0,0,0,2.24,1.5,7.6,7.6,0,0,0,2.7.48,9.87,9.87,0,0,0,3.66-.67,10.23,10.23,0,0,0,3.2-2H501Z" transform="translate(-5.87 -2.47)"/><path class="cls-2" d="M523.8,115.68H510.39V95.33H523.8v2.4H513.1v5.58h10.7v2.41H513.1v7.56h10.7Z" transform="translate(-5.87 -2.47)"/><path class="cls-2" d="M548.49,109.87a5.37,5.37,0,0,1-.56,2.35,5.52,5.52,0,0,1-1.55,2,8.21,8.21,0,0,1-2.55,1.37,11,11,0,0,1-3.51.49,17.06,17.06,0,0,1-4-.41,19.68,19.68,0,0,1-3.58-1.22V111H533a11.31,11.31,0,0,0,3.57,2,11.83,11.83,0,0,0,3.8.69,7,7,0,0,0,3.92-.94,2.91,2.91,0,0,0,1.4-2.52,2.67,2.67,0,0,0-.66-2,4.6,4.6,0,0,0-2-1,20.69,20.69,0,0,0-2.22-.45c-.8-.12-1.64-.27-2.54-.45a7.53,7.53,0,0,1-4-2,5.36,5.36,0,0,1,.85-7.81A8.86,8.86,0,0,1,540.56,95a17.18,17.18,0,0,1,3.93.41,17.78,17.78,0,0,1,3.18,1v3.2h-.19a9.59,9.59,0,0,0-3.06-1.64,12,12,0,0,0-3.88-.65,6,6,0,0,0-3.49.91,2.7,2.7,0,0,0-1.32,2.32,2.87,2.87,0,0,0,.66,2,4.4,4.4,0,0,0,2.31,1.1c.58.13,1.41.29,2.49.47s2,.37,2.73.56a7.13,7.13,0,0,1,3.42,1.82A4.77,4.77,0,0,1,548.49,109.87Z" transform="translate(-5.87 -2.47)"/><path class="cls-2" d="M279.51,75.53s5.06,2.9,17.21,10.67S332,98.52,334.56,77.47l-2,0s-5.79,11.11-13.84,8.27-36.23-11.31-38.23-11.27S279.51,75.53,279.51,75.53Z" transform="translate(-5.87 -2.47)"/><path class="cls-1" d="M209.34,67.94a3.43,3.43,0,0,0-.22,2.45,2.93,2.93,0,0,0,1.23,1.55,3.21,3.21,0,0,0,1.72.54h.65v.72H197.31v-.72H198a6.73,6.73,0,0,0,3.42-1,7.68,7.68,0,0,0,2.92-3.5Zm15.48-46.58.29,8.78L207.25,73H202l18.65-42.19c.15-.29.4-.83.76-1.62s.74-1.69,1.15-2.7.78-2,1.12-2.91a7.21,7.21,0,0,0,.5-2.2Zm7.56,34.7v3H211.21v-3Zm-7.56-34.7,23.54,51.41h-13l-15-37.51Zm8.64,46.58h12.6a8.18,8.18,0,0,0,2.95,3.5,6.57,6.57,0,0,0,3.38,1H253v.72h-22.9v-.72h.65a3.32,3.32,0,0,0,2.52-1.19C234,70.5,234,69.38,233.46,67.94Z" transform="translate(-5.87 -2.47)"/><path class="cls-1" d="M277,29.06a31.66,31.66,0,0,1,10.18,1.55,22.09,22.09,0,0,1,7.85,4.5,19.91,19.91,0,0,1,5,7.13,24,24,0,0,1,1.77,9.43A23.52,23.52,0,0,1,300,61a19.93,19.93,0,0,1-5,7.09,22.09,22.09,0,0,1-7.85,4.5,34.24,34.24,0,0,1-20.37,0,22.09,22.09,0,0,1-7.85-4.5,20.06,20.06,0,0,1-5-7.09,23.52,23.52,0,0,1-1.76-9.33,24,24,0,0,1,1.76-9.43,20,20,0,0,1,5-7.13,22.09,22.09,0,0,1,7.85-4.5A31.68,31.68,0,0,1,277,29.06Zm0,42.27a11.65,11.65,0,0,0,7.3-2.41,15.28,15.28,0,0,0,4.83-6.81,29,29,0,0,0,1.69-10.44,29.55,29.55,0,0,0-1.69-10.55,15.27,15.27,0,0,0-4.83-6.84,12.23,12.23,0,0,0-14.58,0,15.64,15.64,0,0,0-4.82,6.84,29.08,29.08,0,0,0-1.73,10.55,28.53,28.53,0,0,0,1.73,10.44,15.66,15.66,0,0,0,4.82,6.81A11.56,11.56,0,0,0,277,71.33Zm-.15,2.73-2.16-2.59q4,.28,7.06.69t5.69,1q2.58.57,5.18,1.37t5.54,1.83q3,1,6.77,2.56a51.57,51.57,0,0,0,8.25,2.34,32.33,32.33,0,0,0,7.59.57,23.92,23.92,0,0,0,6.7-1.26,19.72,19.72,0,0,0,5.61-3l.36.22a12.09,12.09,0,0,1-1.83,6,14.12,14.12,0,0,1-4.65,4.57,18.5,18.5,0,0,1-7,2.49,26.35,26.35,0,0,1-9-.29,38.73,38.73,0,0,1-10.47-3.82,63.72,63.72,0,0,1-6.52-3.88c-2-1.4-4-2.73-5.87-4a39,39,0,0,0-5.54-3.17A17.52,17.52,0,0,0,276.8,74.06Z" transform="translate(-5.87 -2.47)"/><path class="cls-1" d="M310.93,30v3.74h-.14a3.17,3.17,0,0,0-1-2.23,3.31,3.31,0,0,0-2.31-.86h-1V30Zm10.22,0V57.14q0,6.63,3.06,10.37a10.41,10.41,0,0,0,8.54,3.75q5.69,0,8.82-3.53t3.2-9.79V30h4.75V57.5q0,7.71-4.71,12.17t-13.36,4.47q-10.44,0-15.55-4.43t-5.11-12.13V30Zm4.25,0v.65h-1.08a3.2,3.2,0,0,0-2.23.86,2.92,2.92,0,0,0-.94,2.23H321V30Zm19.51,0v3.74h-.14a3.13,3.13,0,0,0-1-2.23,3.2,3.2,0,0,0-2.23-.86h-1V30Zm8.86,0v.65h-.94a3.43,3.43,0,0,0-2.34.86,2.88,2.88,0,0,0-1,2.23h-.14V30Z" transform="translate(-5.87 -2.47)"/><path class="cls-1" d="M362.84,68.45c-.53,1.29-.45,2.29.22,3a3.05,3.05,0,0,0,2.23,1h.58v.72h-14.4v-.72H352a6.17,6.17,0,0,0,3-.9,6.52,6.52,0,0,0,2.59-3.13Zm13.54-40.39.14,8.64L360.9,73h-5.33l16.85-36.21a15.8,15.8,0,0,1,.65-1.55q.49-1.11,1.08-2.52L375.23,30a8.18,8.18,0,0,0,.57-2Zm6.26,31V61.9H364.28V59.09Zm-6.26-31,21.31,44.78H385.52L372.13,41.23Zm7.34,40.39H395.6a6.86,6.86,0,0,0,2.67,3.13,6.11,6.11,0,0,0,3,.9h.58v.72H380.7v-.72h.57a3.09,3.09,0,0,0,2.24-1C384.18,70.74,384.25,69.74,383.72,68.45Z" transform="translate(-5.87 -2.47)"/><path class="cls-1" d="M469.76,52.18l.65,12.38a18.13,18.13,0,0,1-4.25,4.82,21,21,0,0,1-6.62,3.5,29.67,29.67,0,0,1-9.36,1.33A36.12,36.12,0,0,1,434.81,71a23.4,23.4,0,0,1-10.19-9A26.35,26.35,0,0,1,421,47.93,26.44,26.44,0,0,1,424.55,34a23.13,23.13,0,0,1,10.11-9,36,36,0,0,1,15.73-3.17,42.87,42.87,0,0,1,10.34,1.15,34.21,34.21,0,0,1,7.66,2.81l.08,12.31h-.65q-1.95-7.12-6.34-10.18a17.56,17.56,0,0,0-10.29-3.06,17.08,17.08,0,0,0-9.87,2.8A18.14,18.14,0,0,0,435,35.54a30.44,30.44,0,0,0-2.24,12.24,32.33,32.33,0,0,0,2.13,12.32,18.28,18.28,0,0,0,6.05,8.06,15.91,15.91,0,0,0,9.25,3,21.89,21.89,0,0,0,9.36-1.8,13.81,13.81,0,0,0,6.15-6,34.77,34.77,0,0,0,3.5-11.23Z" transform="translate(-5.87 -2.47)"/><path class="cls-1" d="M483.37,68.45c-.53,1.29-.46,2.29.22,3a3.05,3.05,0,0,0,2.23,1h.57v.72H472v-.72h.58a6.11,6.11,0,0,0,3-.9,6.53,6.53,0,0,0,2.6-3.13Zm13.54-40.39.14,8.64L481.43,73H476.1L493,36.77c.09-.29.31-.81.64-1.55s.7-1.58,1.08-2.52.75-1.82,1.08-2.66a7.85,7.85,0,0,0,.58-2Zm6.26,31V61.9H484.81V59.09Zm-6.26-31,21.31,44.78H506.05L492.66,41.23Zm7.34,40.39h11.88a6.9,6.9,0,0,0,2.66,3.13,6.17,6.17,0,0,0,3,.9h.57v.72H501.23v-.72h.57a3.05,3.05,0,0,0,2.23-1C504.71,70.74,504.78,69.74,504.25,68.45Z" transform="translate(-5.87 -2.47)"/><path class="cls-1" d="M528.15,34.46H528a3.8,3.8,0,0,0-3.82-3.74h-.93V30h5.18Zm0,34.2.29,4.54h-5.18v-.72h.86a3.65,3.65,0,0,0,2.7-1.12,3.92,3.92,0,0,0,1.19-2.7ZM538.38,30V73.2H527.94V30Zm7,0a26.82,26.82,0,0,1,5.76.61,16.54,16.54,0,0,1,5,2,9.94,9.94,0,0,1,3.57,3.6,11,11,0,0,1,1.33,5.65,12.88,12.88,0,0,1-1,5,11.07,11.07,0,0,1-3.24,4.29,11.88,11.88,0,0,1-5.73,2.37,10,10,0,0,1,4,2.52,22,22,0,0,1,3,3.53c.19.38.52,1,1,1.83s1.1,1.81,1.84,2.89,1.52,2.19,2.34,3.34a24,24,0,0,0,2.52,3A6.52,6.52,0,0,0,568,72.05a7.55,7.55,0,0,0,2.67.43v.72h-6.05a31.72,31.72,0,0,1-6.59-.58,11.28,11.28,0,0,1-4.68-2.12,16.13,16.13,0,0,1-3.64-4.21A25.61,25.61,0,0,1,548.39,64q-.72-1.33-1.44-2.7c-.48-.91-.9-1.8-1.26-2.66a16,16,0,0,1-.76-2.16,8.75,8.75,0,0,0-2.12-3.35,3.49,3.49,0,0,0-2.2-1v-.64h1.8a8.67,8.67,0,0,0,3-.54,6.28,6.28,0,0,0,2.7-2.09,10.72,10.72,0,0,0,1.8-4.57,7.66,7.66,0,0,0,.25-1.23,9.55,9.55,0,0,0,0-1.8,10.68,10.68,0,0,0-1-4.28,6.3,6.3,0,0,0-2.05-2.45,7.81,7.81,0,0,0-2.48-1.15,8.83,8.83,0,0,0-2.2-.33c-.91,0-1.74-.06-2.48,0a11.79,11.79,0,0,1-1.69,0s-.12-.25-.22-.75-.24-1.24-.43-2.2Zm-7.2,38.66h.15a3.4,3.4,0,0,0,1.26,2.81,4.26,4.26,0,0,0,2.7,1h.72v.72h-5.19Z" transform="translate(-5.87 -2.47)"/><path class="cls-1" d="M575.1,34.54H575a3.87,3.87,0,0,0-1.18-2.74,3.76,3.76,0,0,0-2.7-1.08h-.94V30h5.33Zm0,34.12.36,4.54h-5.33v-.72h.94a3.68,3.68,0,0,0,2.7-1.12,3.9,3.9,0,0,0,1.18-2.7ZM585.32,30V73.2H575V30ZM603,30v2.88H585.18V30Zm-3.24,20.38v2.88H585.18V50.38Zm2.45,19.94,1.66,2.88H585.18V70.32ZM606.78,60,604,73.2H591.59l2.23-2.88a11.75,11.75,0,0,0,5.51-1.26,12.21,12.21,0,0,0,4.14-3.6A17.75,17.75,0,0,0,606.13,60Zm-7.06-15.77v6.34h-6.19v-.14a5.39,5.39,0,0,0,4-1.7,5.72,5.72,0,0,0,1.47-4v-.51Zm0,8.93v6.34H599v-.58a5.61,5.61,0,0,0-1.47-4,5.43,5.43,0,0,0-4-1.65v-.15ZM603,28.92v1.73L595.4,30a25.31,25.31,0,0,0,4.39-.4A24.69,24.69,0,0,0,603,28.92Zm0,3.82v7.63h-.72v-.65a7,7,0,0,0-1.69-5,6.58,6.58,0,0,0-4.86-1.87v-.14Z" transform="translate(-5.87 -2.47)"/><path class="cls-3" d="M145.8,65.27s-1.23-1.38.28-1.61,12.25,9.93,13.64,9.2c1.53-.91-3.33-4.43-5.58-7.83S149,56.84,147,55.82a25.22,25.22,0,0,1-6.32-4h0a28.38,28.38,0,0,0-4.47-2.33,88.87,88.87,0,0,1-8.77-5.81c-2-1.42-15.64-8.37-17.9-8.86s-4.53-2-6.18-1.55-1.55.51-6.19,3.61S84.36,44.4,81.94,48.28a95.94,95.94,0,0,0-6,11.07C73.49,64.4,67.22,62.23,62,65.1s-5.61,4.17-16.27,9.36C36,79.21,13,76.27,6.31,73.29a.31.31,0,0,0-.37.47c4.55,5.64,16.29,18.11,72.46,5.16,17.51-3.26,37.37.39,43,3.92a.31.31,0,0,0,.46-.22c.4-2.83,2.4-14.23-10.91-18h0c-13.23-1.91-17.2,9.56-17.71,11.23a.29.29,0,0,1-.27.21A17,17,0,0,1,89.45,76c-.84-.24-.57-.64.11-1.74S93,66.62,92.57,61a.28.28,0,0,1,.09-.24c2.46-2.26,7-7.23,8.94-11.52s3.53-3.49,3.53-3.49,9.9,3.76,13.22,3.16,17.66,6.38,19.18,8.74a.3.3,0,0,1,0,.26,5,5,0,0,0,1.19,5.26c1.77,1.81,4.64,2.11,8.83,8.67l0,0c.89.92,2.64,1.53,2.57-.29S146.1,65.71,145.8,65.27Z" transform="translate(-5.87 -2.47)"/><path class="cls-4" d="M47.42,137.16l-.67.63a.82.82,0,0,1-.9.13c-5.17-2.55-48.39-25.51-38.31-76.86,10.73-54.59,73-67,100.1-53.63s28.59,35,18.89,38.31c-8.72,3-14.14-5.2-14.41-8.63a.76.76,0,0,1,.95-.74c3.76.81,12.2.74,3.25-10.75-9.71-12.45-30.64-23-49.54-19.15S20.31,28,12.65,52.44c-7.11,22.66-5.42,48.62,16.88,71,.65.64,1.73-.17,1.2-.9C20.38,108.21,4.32,82.91,22.35,49.09,34.28,26.73,53.15,16.48,67.2,11.8a.72.72,0,1,1,.55,1.34C51,19.83,27.32,34.4,18.82,64.74A.76.76,0,0,0,20,65.5c4.82-3.43,8.83-4.89,12-.61,1.36,2.13-3.74,3.5-5.61,3.11a.76.76,0,0,0-.85.37c-2.7,5-12.29,24.27,21.89,67.85A.68.68,0,0,1,47.42,137.16Z" transform="translate(-5.87 -2.47)"/><path class="cls-4" d="M110.7,12.69s16.85.48,28.09,19.16c7.89,13.12,9,22.47,8.93,26.86a.74.74,0,0,0,1.38.31A15.93,15.93,0,0,0,151,53.4a29.21,29.21,0,0,0-.31-7.09.74.74,0,0,1,1.37-.41A149.14,149.14,0,0,1,160,61.34a.73.73,0,0,0,1.4-.39c-2.63-12.41-11.65-35.24-38.4-49.21,4.43,3.57,11.69,6.9,21.51,18.85.58.7-.51,1.53-1.13.86C134.74,22.16,123.22,12.69,110.7,12.69Z" transform="translate(-5.87 -2.47)"/><path class="cls-4" d="M35.2,123s2.67,1.94-.8-3.23S25,101.56,23.77,98.31c-.41-1.39-.9-.5-.5.89-.91,0-3.16-1-2.23-1.45s1.47-2.7.12-3.21c-.9-.49-.42-.93.07-1.83s.61-4.09-.27-5-2.67-1.94-1.74-2.36,1.49-3.15.61-4.1-.72-5.06.17-4.57-1.28-2.34-1.83-.07c-.93.42-.93.42-1,1.79S17.93,83,17,83.85s.41,1.39.88,1c-.05,1.37.73,5.07.64,7.35s2.2,2.38,1.27,2.8-1.39.41-1,1.34,2.49,7,3.83,7.93,1.35.51.42.93,0,0,1.28,2.34S33.4,122,35.2,123Z" transform="translate(-5.87 -2.47)"/><path class="cls-4" d="M21.88,69.8a12.28,12.28,0,0,1,6.42-4.1c.46.5,2.92-.85,1-1.88S23,64.54,21.88,69.8Z" transform="translate(-5.87 -2.47)"/></svg>